<svg width="647" height="609" viewBox="0 0 647 609" fill="none" xmlns="http://www.w3.org/2000/svg">
<path d="M291.291 12.2069L70.3076 103.902C45.0951 114.364 31.4963 143.889 39.9338 169.849L52.0604 207.16C60.4979 233.12 87.7767 245.683 112.989 235.222L333.973 143.527C359.185 133.065 372.784 103.539 364.346 77.5793L352.22 40.2692C343.782 14.3091 316.504 1.74518 291.291 12.2069Z" fill="#FF9D43" stroke="#FFDFC1" stroke-width="16.092"/>
<path d="M293.778 19.8588L72.7946 111.554C51.6865 120.313 40.3014 145.032 47.3654 166.766L59.492 204.076C66.5559 225.81 89.394 236.328 110.502 227.57L331.486 135.875C352.594 127.116 363.979 102.397 356.915 80.663L344.788 43.3528C337.724 21.6188 314.886 11.1002 293.778 19.8588Z" stroke="#001871" stroke-width="6.89655"/>
<path d="M111.416 145.201C113.035 145.55 113.885 147.239 113.479 148.768L110.468 159.884L119.364 154.832C120.691 154.281 122.407 154.93 122.894 156.429C123.479 158.227 122.542 159.977 121.118 160.228L111.442 162.882L120.007 168.854C121.458 169.612 121.61 171.931 120.575 173.381L120.31 173.491C119.276 174.941 117.489 175.002 116.471 173.723L109.541 165.372L108.777 176.916C108.733 178.635 107.336 179.895 105.717 179.546C104.364 179.087 103.248 177.509 103.92 175.869L106.931 164.753L98.3003 169.696C96.9737 170.246 95.2574 169.597 94.7702 168.099C94.283 166.6 95.1225 164.55 96.5465 164.3L105.957 161.756L97.2944 155.484C96.1087 154.615 95.692 152.406 96.8237 151.256C97.858 149.807 99.6448 149.746 100.663 151.024L107.858 159.266L108.357 147.832C108.4 146.113 109.797 144.852 111.416 145.201Z" fill="#001871" stroke="#001871" stroke-width="1.14943"/>
<path d="M148.825 129.681C150.444 130.03 151.294 131.719 150.887 133.248L147.876 144.364L156.772 139.311C158.099 138.761 159.815 139.41 160.303 140.909C160.887 142.707 159.95 144.457 158.526 144.708L148.85 147.362L157.416 153.333C158.867 154.092 159.018 156.411 157.984 157.861L157.718 157.971C156.684 159.421 154.897 159.482 153.879 158.203L146.95 149.851L146.185 161.396C146.142 163.115 144.745 164.375 143.126 164.026C141.772 163.567 140.657 161.988 141.329 160.349L144.34 149.233L135.709 154.175C134.382 154.726 132.666 154.077 132.179 152.578C131.692 151.079 132.531 149.03 133.955 148.779L143.366 146.235L134.703 139.964C133.517 139.095 133.101 136.886 134.232 135.736C135.267 134.286 137.053 134.225 138.071 135.504L145.266 143.746L145.765 132.311C145.809 130.592 147.206 129.332 148.825 129.681Z" fill="#001871" stroke="#001871" stroke-width="1.14943"/>
<path d="M186.236 114.155C187.855 114.504 188.705 116.193 188.299 117.722L185.287 128.838L194.184 123.786C195.51 123.235 197.227 123.884 197.714 125.383C198.299 127.182 197.362 128.931 195.938 129.182L186.262 131.836L194.827 137.808C196.278 138.567 196.429 140.885 195.395 142.335L195.13 142.445C194.096 143.895 192.309 143.956 191.291 142.677L184.361 134.326L183.597 145.87C183.553 147.589 182.156 148.849 180.537 148.5C179.184 148.041 178.068 146.463 178.74 144.823L181.751 133.707L173.12 138.65C171.794 139.2 170.077 138.551 169.59 137.053C169.103 135.554 169.942 133.504 171.366 133.254L180.777 130.71L172.114 124.438C170.929 123.569 170.512 121.36 171.644 120.21C172.678 118.761 174.465 118.7 175.483 119.978L182.678 128.22L183.177 116.786C183.22 115.067 184.617 113.807 186.236 114.155Z" fill="#001871" stroke="#001871" stroke-width="1.14943"/>
<path d="M223.646 98.6327C225.265 98.9816 226.115 100.67 225.709 102.2L222.698 113.315L231.594 108.263C232.921 107.713 234.637 108.361 235.124 109.86C235.709 111.659 234.772 113.408 233.348 113.659L223.672 116.313L232.237 122.285C233.688 123.044 233.84 125.362 232.805 126.812L232.54 126.922C231.506 128.372 229.719 128.433 228.701 127.154L221.771 118.803L221.007 130.347C220.963 132.066 219.566 133.326 217.947 132.977C216.594 132.518 215.479 130.94 216.15 129.3L219.161 118.185L210.53 123.127C209.204 123.677 207.487 123.029 207 121.53C206.513 120.031 207.352 117.982 208.777 117.731L218.187 115.187L209.524 108.915C208.339 108.046 207.922 105.838 209.054 104.688C210.088 103.238 211.875 103.177 212.893 104.456L220.088 112.697L220.587 101.263C220.63 99.5439 222.027 98.2838 223.646 98.6327Z" fill="#001871" stroke="#001871" stroke-width="1.14943"/>
<path d="M261.057 83.1126C262.676 83.4615 263.525 85.1501 263.119 86.6796L260.108 97.7953L269.004 92.7429C270.331 92.1925 272.047 92.8412 272.534 94.3401C273.119 96.1388 272.182 97.8884 270.758 98.139L261.082 100.793L269.647 106.765C271.098 107.524 271.25 109.842 270.216 111.292L269.95 111.402C268.916 112.852 267.129 112.913 266.111 111.634L259.182 103.283L258.417 114.827C258.374 116.546 256.977 117.806 255.358 117.457C254.004 116.998 252.889 115.42 253.56 113.78L256.572 102.665L247.941 107.607C246.614 108.157 244.898 107.509 244.411 106.01C243.923 104.511 244.763 102.462 246.187 102.211L255.597 99.6669L246.935 93.3951C245.749 92.5263 245.332 90.3177 246.464 89.1677C247.498 87.7179 249.285 87.6569 250.303 88.9357L257.498 97.1771L257.997 85.743C258.041 84.0239 259.438 82.7638 261.057 83.1126Z" fill="#001871" stroke="#001871" stroke-width="1.14943"/>
<path d="M298.2 67.6979C299.819 68.0468 300.669 69.7354 300.263 71.2648L297.252 82.3805L306.148 77.3282C307.475 76.7777 309.191 77.4264 309.678 78.9253C310.263 80.724 309.326 82.4736 307.902 82.7243L298.226 85.3784L306.791 91.3502C308.242 92.109 308.394 94.4277 307.359 95.8775L307.094 95.9876C306.06 97.4374 304.273 97.4984 303.255 96.2196L296.325 87.8681L295.561 99.4123C295.517 101.131 294.12 102.392 292.501 102.043C291.148 101.584 290.033 100.005 290.704 98.3656L293.716 87.2499L285.084 92.1922C283.758 92.7426 282.042 92.094 281.554 90.5951C281.067 89.0961 281.907 87.0467 283.331 86.7961L292.741 84.2521L284.079 77.9804C282.893 77.1115 282.476 74.903 283.608 73.7529C284.642 72.3031 286.429 72.2422 287.447 73.5209L294.642 81.7624L295.141 70.3282C295.184 68.6091 296.581 67.349 298.2 67.6979Z" fill="#001871" stroke="#001871" stroke-width="1.14943"/>
<mask id="path-9-outside-1_4_14" maskUnits="userSpaceOnUse" x="100.034" y="309.805" width="155.271" height="139.456" fill="black">
<rect fill="white" x="100.034" y="309.805" width="155.271" height="139.456"/>
<path d="M120.567 404.77L127.4 378.248C134.194 351.883 161.074 336.016 187.44 342.809C213.806 349.603 229.672 376.483 222.878 402.849L216.045 429.371"/>
</mask>
<path d="M120.567 404.77L127.4 378.248C134.194 351.883 161.074 336.016 187.44 342.809C213.806 349.603 229.672 376.483 222.878 402.849L216.045 429.371" fill="#FF9D43"/>
<path d="M104.984 400.755C102.766 409.361 107.945 418.135 116.552 420.353C125.158 422.57 133.932 417.391 136.15 408.785L104.984 400.755ZM200.462 425.355C198.244 433.962 203.423 442.736 212.03 444.954C220.636 447.171 229.41 441.992 231.628 433.386L200.462 425.355ZM136.15 408.785L142.983 382.263L111.817 374.233L104.984 400.755L136.15 408.785ZM142.983 382.263C147.559 364.504 165.665 353.817 183.425 358.392L191.455 327.226C156.483 318.216 120.828 339.261 111.817 374.233L142.983 382.263ZM183.425 358.392C201.184 362.968 211.871 381.074 207.295 398.834L238.461 406.864C247.472 371.892 226.427 336.237 191.455 327.226L183.425 358.392ZM207.295 398.834L200.462 425.355L231.628 433.386L238.461 406.864L207.295 398.834Z" fill="#FFDFC1" mask="url(#path-9-outside-1_4_14)"/>
<path d="M85.9355 541.794C68.2871 536.371 57.1873 518.708 59.3673 500.373C60.7898 488.409 62.5592 476.227 65.6687 464.159C68.7782 452.09 73.1159 440.57 77.6523 429.408C84.6036 412.303 102.857 402.203 120.928 405.983C136.135 409.165 151.494 412.738 168.305 417.07C185.117 421.401 200.29 425.695 215.14 430.258C232.789 435.681 243.889 453.344 241.709 471.679L85.9355 541.794ZM85.9355 541.794C100.786 546.356 115.959 550.651 132.771 554.982C149.582 559.314 164.941 562.887 180.147 566.068L85.9355 541.794ZM83.7326 548.963L83.7328 548.963C98.696 553.56 113.98 557.886 130.899 562.245C147.819 566.605 163.29 570.203 178.611 573.409L178.612 573.409C200.354 577.958 222.103 565.814 230.372 545.468L230.372 545.467C234.947 534.209 239.435 522.323 242.67 509.765C245.906 497.207 247.721 484.632 249.156 472.564L249.156 472.564C251.749 450.755 238.576 429.613 217.343 423.089L215.141 430.257L217.343 423.089C202.38 418.491 187.096 414.166 170.177 409.807C153.257 405.447 137.786 401.848 122.464 398.642L122.464 398.642C100.723 394.094 78.9728 406.238 70.7041 426.584C66.1286 437.843 61.6415 449.729 58.4059 462.287C55.1703 474.845 53.3546 487.42 51.9198 499.488C49.3267 521.297 62.5004 542.439 83.7326 548.963Z" fill="#FF9D43" stroke="#FFDFC1" stroke-width="15"/>
<path d="M120.567 404.77L127.4 378.248C134.194 351.883 161.074 336.016 187.44 342.809C213.806 349.603 229.672 376.483 222.878 402.849L216.045 429.371" fill="#FF9D43"/>
<path d="M120.567 404.77L127.4 378.248C134.194 351.883 161.074 336.016 187.44 342.809C213.805 349.603 229.672 376.483 222.878 402.849L216.045 429.371" stroke="#001871" stroke-width="6.89655" stroke-linecap="round" stroke-linejoin="round"/>
<path d="M59.3673 500.373C57.1873 518.708 68.2871 536.371 85.9355 541.794C100.786 546.356 115.959 550.651 132.771 554.982C149.582 559.314 164.941 562.887 180.147 566.068C198.22 569.849 216.472 559.749 223.424 542.644C227.96 531.482 232.298 519.962 235.407 507.893C238.517 495.825 240.286 483.643 241.709 471.679C243.889 453.344 232.789 435.681 215.14 430.258C200.29 425.695 185.117 421.401 168.305 417.07C151.494 412.738 136.135 409.165 120.928 405.983C102.857 402.203 84.6036 412.303 77.6523 429.408C73.1159 440.57 68.7782 452.09 65.6687 464.159C62.5592 476.227 60.7898 488.409 59.3673 500.373Z" fill="#FF9D43" stroke="#001871" stroke-width="6.89655"/>
<path d="M147.805 496.633L153.272 475.416" stroke="#001871" stroke-width="6.89655" stroke-linecap="round"/>
<circle cx="157.883" cy="457.52" r="13.1309" transform="rotate(14.4486 157.883 457.52)" fill="#001871"/>
<path d="M346.239 161.397H317.756L317.067 161.397C287.439 161.397 264.288 161.397 246.24 163.823C227.793 166.303 213.341 171.465 202.012 182.794C190.683 194.123 185.521 208.575 183.041 227.022C180.615 245.07 180.615 268.221 180.615 297.849L180.615 298.538L180.615 299.227C180.615 328.854 180.615 352.005 183.041 370.054C185.521 388.5 190.683 402.953 202.012 414.282C213.341 425.611 227.793 430.772 246.24 433.252C264.288 435.679 287.439 435.679 317.067 435.678H317.756H346.239H346.928C376.555 435.679 399.707 435.679 417.755 433.252C436.201 430.772 450.655 425.611 461.983 414.282C473.312 402.953 478.474 388.5 480.954 370.054C483.38 352.005 483.38 328.854 483.38 299.227V298.538V297.849C483.38 268.221 483.38 245.07 480.954 227.022C478.474 208.575 473.312 194.123 461.983 182.794C450.655 171.465 436.202 166.303 417.755 163.823C399.707 161.397 376.555 161.397 346.928 161.397L346.239 161.397Z" stroke="#FFDFC1" stroke-width="17.931"/>
<path d="M346.239 170.362H317.756C257.333 170.362 227.122 170.362 208.351 189.133C189.58 207.904 189.58 238.115 189.58 298.538C189.58 358.96 189.58 389.172 208.351 407.942C227.122 426.713 257.333 426.713 317.756 426.713H346.239C406.661 426.713 436.873 426.713 455.644 407.942C474.414 389.172 474.414 358.96 474.414 298.538C474.414 238.115 474.414 207.904 455.644 189.133C436.873 170.362 406.661 170.362 346.239 170.362Z" fill="#FF9D43" stroke="#001871" stroke-width="8.96552"/>
<path d="M403.206 355.505C417.448 347.945 417.448 335.777 417.448 311.444V285.632C417.448 261.298 417.448 249.131 403.206 241.571" stroke="#001871" stroke-width="8.96552" stroke-linecap="round"/>
<path d="M296.392 327.021C312.286 327.021 325.17 314.269 325.17 298.538C325.17 282.807 312.286 270.054 296.392 270.054M296.392 327.021C280.499 327.021 267.614 314.269 267.614 298.538C267.614 282.807 280.499 270.054 296.392 270.054M296.392 327.021V355.505M296.392 270.054V241.571M271.47 312.779L246.547 327.021M346.238 270.054L321.315 284.296M321.316 312.779L346.239 327.021M246.549 270.054L271.471 284.296" stroke="#001871" stroke-width="8.96552" stroke-linecap="round" stroke-linejoin="round"/>
<path d="M542.486 329.22L542.485 329.22L542.244 329.113C535.88 326.288 530.783 324.026 526.705 322.487C522.673 320.966 518.729 319.783 514.875 319.783C511.022 319.783 507.078 320.966 503.046 322.487C498.967 324.026 493.871 326.288 487.507 329.113L487.265 329.22L487.265 329.22C477.908 333.374 466.21 337.917 452.962 341.683C452.962 341.683 452.962 341.683 452.962 341.683L452.559 341.798C442.892 344.546 435.087 346.764 429.178 349.056C423.24 351.358 417.886 354.204 414.286 358.97C410.798 363.588 409.451 368.988 408.831 374.838C408.233 380.488 408.233 387.581 408.233 396.185L408.233 396.631V428.433C408.233 461.856 423.319 488.364 441.565 508.129C459.755 527.834 481.429 541.242 495.717 548.783L499.472 541.667L495.717 548.783C495.946 548.904 496.174 549.024 496.4 549.144C502.494 552.365 507.437 554.978 514.875 554.978C522.314 554.978 527.256 552.365 533.351 549.144C533.577 549.024 533.804 548.904 534.034 548.783L530.278 541.667L534.034 548.783C548.322 541.242 569.996 527.834 588.186 508.129C606.431 488.364 621.518 461.856 621.518 428.433V396.631V396.185C621.518 387.581 621.518 380.488 620.92 374.838C620.3 368.989 618.953 363.588 615.465 358.97C611.865 354.204 606.511 351.358 600.573 349.056C594.664 346.764 586.859 344.546 577.192 341.798L576.789 341.683C563.541 337.918 551.842 333.374 542.486 329.22Z" fill="#FF9D43" stroke="#FFDFC1" stroke-width="16.092" stroke-linecap="round"/>
<path d="M613.472 428.433V396.631C613.472 378.664 613.472 369.681 609.045 363.82C604.618 357.959 594.608 355.113 574.589 349.423C560.911 345.535 548.854 340.851 539.221 336.574C526.087 330.744 519.52 327.829 514.875 327.829C510.23 327.829 503.664 330.744 490.53 336.574C480.897 340.851 468.84 345.535 455.163 349.423C435.143 355.113 425.133 357.959 420.706 363.82C416.279 369.681 416.279 378.664 416.279 396.631V428.433C416.279 490.058 471.742 527.032 499.472 541.667C506.123 545.177 509.448 546.932 514.875 546.932C520.303 546.932 523.627 545.177 530.278 541.667C558.008 527.032 613.472 490.058 613.472 428.433Z" fill="#FF9D43" stroke="#001871" stroke-width="6.89655" stroke-linecap="round"/>
<path d="M482.01 448.336C482.01 448.336 492.965 448.336 503.92 470.246C503.92 470.246 538.719 415.47 569.651 404.515" stroke="#001871" stroke-width="6.89655" stroke-linecap="round" stroke-linejoin="round"/>
</svg>
