<svg width="498" height="86" viewBox="0 0 498 86" fill="none" xmlns="http://www.w3.org/2000/svg">
<path d="M123.609 39.8944H141.075C143.271 39.8944 145.012 39.3971 146.296 38.4026C147.581 37.3667 148.223 35.9371 148.223 34.1139C148.223 32.2906 147.581 30.8817 146.296 29.8872C145.012 28.8513 143.271 28.3333 141.075 28.3333H121.931L127.214 22.5528V66H115.467V19.3828H142.629C146.11 19.3828 149.155 20.0044 151.766 21.2475C154.376 22.4907 156.407 24.2103 157.857 26.4065C159.307 28.6027 160.033 31.1718 160.033 34.1139C160.033 37.0145 159.307 39.5629 157.857 41.7591C156.407 43.9553 154.376 45.6749 151.766 46.918C149.155 48.1197 146.11 48.7206 142.629 48.7206H123.609V39.8944ZM131.13 44.1832H144.369L161.524 66H147.912L131.13 44.1832ZM184.864 66.9945C180.637 66.9945 176.846 66.2072 173.489 64.6326C170.174 63.0579 167.564 60.8618 165.658 58.044C163.752 55.2263 162.799 51.932 162.799 48.1612C162.799 44.4732 163.71 41.2411 165.533 38.4648C167.357 35.6885 169.864 33.513 173.054 31.9384C176.286 30.3638 179.933 29.5765 183.994 29.5765C188.138 29.5765 191.701 30.4881 194.685 32.3113C197.668 34.1346 199.968 36.7037 201.584 40.0187C203.2 43.3337 204.008 47.2288 204.008 51.7041H172.06V44.4318H197.668L193.504 47.0424C193.379 45.0948 192.903 43.458 192.074 42.132C191.287 40.7646 190.23 39.7286 188.904 39.0242C187.578 38.2783 186.004 37.9054 184.18 37.9054C182.191 37.9054 180.472 38.299 179.021 39.0864C177.571 39.8737 176.431 40.9718 175.603 42.3806C174.815 43.7895 174.422 45.4263 174.422 47.291C174.422 49.6529 174.94 51.6626 175.976 53.3201C177.053 54.9776 178.586 56.2415 180.575 57.1117C182.606 57.9818 185.071 58.4169 187.972 58.4169C190.624 58.4169 193.276 58.0647 195.928 57.3603C198.58 56.6144 200.962 55.5785 203.076 54.2525V61.7734C200.672 63.4309 197.917 64.7154 194.809 65.6271C191.743 66.5387 188.428 66.9945 184.864 66.9945ZM209.138 18.1397H220.637V66H209.138V18.1397ZM259.652 66L258.098 53.1337L259.776 48.2855L258.098 43.4995L259.652 30.571H271.648L269.473 48.2855L271.648 66H259.652ZM262.511 48.2855C261.89 52.0563 260.709 55.3506 258.968 58.1683C257.228 60.9446 255.032 63.1201 252.38 64.6947C249.728 66.2279 246.744 66.9945 243.429 66.9945C239.948 66.9945 236.882 66.2072 234.23 64.6326C231.62 63.0579 229.568 60.8825 228.077 58.1062C226.585 55.2884 225.839 52.0149 225.839 48.2855C225.839 44.5561 226.585 41.3033 228.077 38.527C229.568 35.7092 231.62 33.513 234.23 31.9384C236.882 30.3638 239.948 29.5765 243.429 29.5765C246.744 29.5765 249.728 30.3638 252.38 31.9384C255.032 33.4716 257.228 35.6263 258.968 38.4026C260.75 41.179 261.931 44.4732 262.511 48.2855ZM237.524 48.2855C237.524 50.1916 237.918 51.8905 238.705 53.3823C239.493 54.8326 240.57 55.9928 241.937 56.863C243.346 57.6918 244.962 58.1062 246.786 58.1062C248.609 58.1062 250.329 57.6918 251.945 56.863C253.602 55.9928 255.052 54.8326 256.296 53.3823C257.539 51.8905 258.471 50.1916 259.093 48.2855C258.471 46.3794 257.539 44.7011 256.296 43.2508C255.052 41.7591 253.602 40.5988 251.945 39.7701C250.329 38.8999 248.609 38.4648 246.786 38.4648C244.962 38.4648 243.346 38.8999 241.937 39.7701C240.57 40.5988 239.493 41.7591 238.705 43.2508C237.918 44.7011 237.524 46.3794 237.524 48.2855ZM288.393 77.2503C285.907 77.2503 283.69 76.9395 281.743 76.3179C279.837 75.6964 277.972 74.764 276.149 73.5209V65.3784C278.013 66.5801 279.754 67.4296 281.37 67.9268C283.027 68.4655 284.83 68.7349 286.777 68.7349C288.518 68.7349 290.03 68.3619 291.315 67.6161C292.641 66.8702 293.739 65.5028 294.609 63.5138L308.781 30.571H321.025L303.684 67.1188C302.524 69.6051 301.135 71.5941 299.519 73.0858C297.903 74.5776 296.142 75.6342 294.236 76.2558C292.371 76.9188 290.424 77.2503 288.393 77.2503ZM289.761 63.203L274.408 30.571H287.088L300.887 63.203H289.761ZM321.78 50.7717H333.652C333.859 52.1806 334.501 53.4237 335.579 54.5011C336.656 55.5785 338.086 56.4072 339.868 56.9873C341.691 57.5675 343.804 57.8575 346.207 57.8575C349.647 57.8575 352.34 57.381 354.288 56.4279C356.277 55.4749 357.271 54.1282 357.271 52.3878C357.271 51.0618 356.691 50.0466 355.531 49.3421C354.412 48.5963 352.299 48.0576 349.191 47.7261L340.178 46.7937C333.921 46.1722 329.384 44.7219 326.566 42.4428C323.79 40.1637 322.402 37.0559 322.402 33.1194C322.402 30.0116 323.313 27.3596 325.136 25.1634C327.001 22.9672 329.591 21.289 332.906 20.1287C336.262 18.9685 340.178 18.3883 344.654 18.3883C349.087 18.3883 353.003 19.0306 356.401 20.3152C359.799 21.5997 362.513 23.3816 364.544 25.6606C366.574 27.9397 367.672 30.5917 367.838 33.6166H355.966C355.8 32.3735 355.22 31.3168 354.226 30.4466C353.273 29.535 351.967 28.8306 350.31 28.3333C348.694 27.7946 346.725 27.5253 344.405 27.5253C341.297 27.5253 338.811 27.9811 336.946 28.8927C335.123 29.7629 334.211 31.0268 334.211 32.6843C334.211 33.9274 334.75 34.9012 335.827 35.6056C336.946 36.31 338.914 36.828 341.732 37.1595L351.242 38.2162C355.593 38.672 359.074 39.3971 361.684 40.3916C364.295 41.3861 366.18 42.7536 367.341 44.494C368.501 46.2343 369.081 48.4305 369.081 51.0825C369.081 54.2732 368.107 57.0702 366.16 59.4736C364.253 61.8355 361.56 63.6795 358.079 65.0055C354.64 66.3315 350.621 66.9945 346.021 66.9945C341.256 66.9945 337.07 66.3108 333.465 64.9433C329.902 63.5759 327.084 61.6905 325.012 59.2871C322.982 56.8423 321.904 54.0039 321.78 50.7717ZM441.991 19.3828V66H430.803V23.4852L433.537 23.6716L414.58 66H402.584L383.626 23.7959L386.361 23.5473V66H375.173V19.3828H393.26L410.975 60.1573H406.251L423.903 19.3828H441.991ZM448.188 50.7717H460.06C460.267 52.1806 460.909 53.4237 461.986 54.5011C463.064 55.5785 464.493 56.4072 466.275 56.9873C468.099 57.5675 470.212 57.8575 472.615 57.8575C476.055 57.8575 478.748 57.381 480.696 56.4279C482.685 55.4749 483.679 54.1282 483.679 52.3878C483.679 51.0618 483.099 50.0466 481.939 49.3421C480.82 48.5963 478.707 48.0576 475.599 47.7261L466.586 46.7937C460.329 46.1722 455.792 44.7219 452.974 42.4428C450.198 40.1637 448.809 37.0559 448.809 33.1194C448.809 30.0116 449.721 27.3596 451.544 25.1634C453.409 22.9672 455.999 21.289 459.314 20.1287C462.67 18.9685 466.586 18.3883 471.061 18.3883C475.495 18.3883 479.411 19.0306 482.809 20.3152C486.207 21.5997 488.921 23.3816 490.951 25.6606C492.982 27.9397 494.08 30.5917 494.246 33.6166H482.374C482.208 32.3735 481.628 31.3168 480.633 30.4466C479.68 29.535 478.375 28.8306 476.718 28.3333C475.101 27.7946 473.133 27.5253 470.813 27.5253C467.705 27.5253 465.219 27.9811 463.354 28.8927C461.531 29.7629 460.619 31.0268 460.619 32.6843C460.619 33.9274 461.158 34.9012 462.235 35.6056C463.354 36.31 465.322 36.828 468.14 37.1595L477.65 38.2162C482.001 38.672 485.482 39.3971 488.092 40.3916C490.703 41.3861 492.588 42.7536 493.748 44.494C494.909 46.2343 495.489 48.4305 495.489 51.0825C495.489 54.2732 494.515 57.0702 492.567 59.4736C490.661 61.8355 487.968 63.6795 484.487 65.0055C481.048 66.3315 477.028 66.9945 472.429 66.9945C467.663 66.9945 463.478 66.3108 459.873 64.9433C456.31 63.5759 453.492 61.6905 451.42 59.2871C449.389 56.8423 448.312 54.0039 448.188 50.7717Z" fill="white"/>
<path fill-rule="evenodd" clip-rule="evenodd" d="M65.4115 71.9659L14.3519 20.9064L21.2242 14.0341L72.2838 65.0936L65.4115 71.9659Z" fill="white"/>
<path fill-rule="evenodd" clip-rule="evenodd" d="M38.4599 79.1046L38.4599 6.89551L48.1788 6.89551V79.1046H38.4599Z" fill="white"/>
<path fill-rule="evenodd" clip-rule="evenodd" d="M14.3539 65.0936L65.4134 14.0341L72.2857 20.9064L21.2262 71.9659L14.3539 65.0936Z" fill="white"/>
<path d="M7.21338 38.0783H20.0354L24.8945 43.0008L20.0354 47.9234H7.21338V38.0783Z" fill="white"/>
<path d="M77.6908 47.9237H64.8688L60.0097 43.0011L64.8688 38.0785L77.6908 38.0785V47.9237Z" fill="white"/>
<path d="M33.082 70.6474H53.5563V79.1047H33.082V70.6474Z" fill="white"/>
<rect x="33.0815" y="6.89502" width="20.4743" height="8.45732" fill="white"/>
</svg>
