<svg width="499" height="86" viewBox="0 0 499 86" fill="none" xmlns="http://www.w3.org/2000/svg">
<path d="M124.609 39.8944H142.075C144.271 39.8944 146.012 39.3971 147.296 38.4026C148.581 37.3667 149.223 35.9371 149.223 34.1139C149.223 32.2906 148.581 30.8817 147.296 29.8872C146.012 28.8513 144.271 28.3333 142.075 28.3333H122.931L128.214 22.5528V66H116.467V19.3828H143.629C147.11 19.3828 150.155 20.0044 152.766 21.2475C155.376 22.4907 157.407 24.2103 158.857 26.4065C160.307 28.6027 161.033 31.1718 161.033 34.1139C161.033 37.0145 160.307 39.5629 158.857 41.7591C157.407 43.9553 155.376 45.6749 152.766 46.918C150.155 48.1197 147.11 48.7206 143.629 48.7206H124.609V39.8944ZM132.13 44.1832H145.369L162.524 66H148.912L132.13 44.1832ZM185.864 66.9945C181.637 66.9945 177.846 66.2072 174.489 64.6326C171.174 63.0579 168.564 60.8618 166.658 58.044C164.752 55.2263 163.799 51.932 163.799 48.1612C163.799 44.4732 164.71 41.2411 166.533 38.4648C168.357 35.6885 170.864 33.513 174.054 31.9384C177.286 30.3638 180.933 29.5765 184.994 29.5765C189.138 29.5765 192.701 30.4881 195.685 32.3113C198.668 34.1346 200.968 36.7037 202.584 40.0187C204.2 43.3337 205.008 47.2288 205.008 51.7041H173.06V44.4318H198.668L194.504 47.0424C194.379 45.0948 193.903 43.458 193.074 42.132C192.287 40.7646 191.23 39.7286 189.904 39.0242C188.578 38.2783 187.004 37.9054 185.18 37.9054C183.191 37.9054 181.472 38.299 180.021 39.0864C178.571 39.8737 177.431 40.9718 176.603 42.3806C175.815 43.7895 175.422 45.4263 175.422 47.291C175.422 49.6529 175.94 51.6626 176.976 53.3201C178.053 54.9776 179.586 56.2415 181.575 57.1117C183.606 57.9818 186.071 58.4169 188.972 58.4169C191.624 58.4169 194.276 58.0647 196.928 57.3603C199.58 56.6144 201.962 55.5785 204.076 54.2525V61.7734C201.672 63.4309 198.917 64.7154 195.809 65.6271C192.743 66.5387 189.428 66.9945 185.864 66.9945ZM210.138 18.1397H221.637V66H210.138V18.1397ZM260.652 66L259.098 53.1337L260.776 48.2855L259.098 43.4995L260.652 30.571H272.648L270.473 48.2855L272.648 66H260.652ZM263.511 48.2855C262.89 52.0563 261.709 55.3506 259.968 58.1683C258.228 60.9446 256.032 63.1201 253.38 64.6947C250.728 66.2279 247.744 66.9945 244.429 66.9945C240.948 66.9945 237.882 66.2072 235.23 64.6326C232.62 63.0579 230.568 60.8825 229.077 58.1062C227.585 55.2884 226.839 52.0149 226.839 48.2855C226.839 44.5561 227.585 41.3033 229.077 38.527C230.568 35.7092 232.62 33.513 235.23 31.9384C237.882 30.3638 240.948 29.5765 244.429 29.5765C247.744 29.5765 250.728 30.3638 253.38 31.9384C256.032 33.4716 258.228 35.6263 259.968 38.4026C261.75 41.179 262.931 44.4732 263.511 48.2855ZM238.524 48.2855C238.524 50.1916 238.918 51.8905 239.705 53.3823C240.493 54.8326 241.57 55.9928 242.937 56.863C244.346 57.6918 245.962 58.1062 247.786 58.1062C249.609 58.1062 251.329 57.6918 252.945 56.863C254.602 55.9928 256.052 54.8326 257.296 53.3823C258.539 51.8905 259.471 50.1916 260.093 48.2855C259.471 46.3794 258.539 44.7011 257.296 43.2508C256.052 41.7591 254.602 40.5988 252.945 39.7701C251.329 38.8999 249.609 38.4648 247.786 38.4648C245.962 38.4648 244.346 38.8999 242.937 39.7701C241.57 40.5988 240.493 41.7591 239.705 43.2508C238.918 44.7011 238.524 46.3794 238.524 48.2855ZM289.393 77.2503C286.907 77.2503 284.69 76.9395 282.743 76.3179C280.837 75.6964 278.972 74.764 277.149 73.5209V65.3784C279.013 66.5801 280.754 67.4296 282.37 67.9268C284.027 68.4655 285.83 68.7349 287.777 68.7349C289.518 68.7349 291.03 68.3619 292.315 67.6161C293.641 66.8702 294.739 65.5028 295.609 63.5138L309.781 30.571H322.025L304.684 67.1188C303.524 69.6051 302.135 71.5941 300.519 73.0858C298.903 74.5776 297.142 75.6342 295.236 76.2558C293.371 76.9188 291.424 77.2503 289.393 77.2503ZM290.761 63.203L275.408 30.571H288.088L301.887 63.203H290.761ZM322.78 50.7717H334.652C334.859 52.1806 335.501 53.4237 336.579 54.5011C337.656 55.5785 339.086 56.4072 340.868 56.9873C342.691 57.5675 344.804 57.8575 347.207 57.8575C350.647 57.8575 353.34 57.381 355.288 56.4279C357.277 55.4749 358.271 54.1282 358.271 52.3878C358.271 51.0618 357.691 50.0466 356.531 49.3421C355.412 48.5963 353.299 48.0576 350.191 47.7261L341.178 46.7937C334.921 46.1722 330.384 44.7219 327.566 42.4428C324.79 40.1637 323.402 37.0559 323.402 33.1194C323.402 30.0116 324.313 27.3596 326.136 25.1634C328.001 22.9672 330.591 21.289 333.906 20.1287C337.262 18.9685 341.178 18.3883 345.654 18.3883C350.087 18.3883 354.003 19.0306 357.401 20.3152C360.799 21.5997 363.513 23.3816 365.544 25.6606C367.574 27.9397 368.672 30.5917 368.838 33.6166H356.966C356.8 32.3735 356.22 31.3168 355.226 30.4466C354.273 29.535 352.967 28.8306 351.31 28.3333C349.694 27.7946 347.725 27.5253 345.405 27.5253C342.297 27.5253 339.811 27.9811 337.946 28.8927C336.123 29.7629 335.211 31.0268 335.211 32.6843C335.211 33.9274 335.75 34.9012 336.827 35.6056C337.946 36.31 339.914 36.828 342.732 37.1595L352.242 38.2162C356.593 38.672 360.074 39.3971 362.684 40.3916C365.295 41.3861 367.18 42.7536 368.341 44.494C369.501 46.2343 370.081 48.4305 370.081 51.0825C370.081 54.2732 369.107 57.0702 367.16 59.4736C365.253 61.8355 362.56 63.6795 359.079 65.0055C355.64 66.3315 351.621 66.9945 347.021 66.9945C342.256 66.9945 338.07 66.3108 334.465 64.9433C330.902 63.5759 328.084 61.6905 326.012 59.2871C323.982 56.8423 322.904 54.0039 322.78 50.7717ZM442.991 19.3828V66H431.803V23.4852L434.537 23.6716L415.58 66H403.584L384.626 23.7959L387.361 23.5473V66H376.173V19.3828H394.26L411.975 60.1573H407.251L424.903 19.3828H442.991ZM449.188 50.7717H461.06C461.267 52.1806 461.909 53.4237 462.986 54.5011C464.064 55.5785 465.493 56.4072 467.275 56.9873C469.099 57.5675 471.212 57.8575 473.615 57.8575C477.055 57.8575 479.748 57.381 481.696 56.4279C483.685 55.4749 484.679 54.1282 484.679 52.3878C484.679 51.0618 484.099 50.0466 482.939 49.3421C481.82 48.5963 479.707 48.0576 476.599 47.7261L467.586 46.7937C461.329 46.1722 456.792 44.7219 453.974 42.4428C451.198 40.1637 449.809 37.0559 449.809 33.1194C449.809 30.0116 450.721 27.3596 452.544 25.1634C454.409 22.9672 456.999 21.289 460.314 20.1287C463.67 18.9685 467.586 18.3883 472.061 18.3883C476.495 18.3883 480.411 19.0306 483.809 20.3152C487.207 21.5997 489.921 23.3816 491.951 25.6606C493.982 27.9397 495.08 30.5917 495.246 33.6166H483.374C483.208 32.3735 482.628 31.3168 481.633 30.4466C480.68 29.535 479.375 28.8306 477.718 28.3333C476.101 27.7946 474.133 27.5253 471.813 27.5253C468.705 27.5253 466.219 27.9811 464.354 28.8927C462.531 29.7629 461.619 31.0268 461.619 32.6843C461.619 33.9274 462.158 34.9012 463.235 35.6056C464.354 36.31 466.322 36.828 469.14 37.1595L478.65 38.2162C483.001 38.672 486.482 39.3971 489.092 40.3916C491.703 41.3861 493.588 42.7536 494.748 44.494C495.909 46.2343 496.489 48.4305 496.489 51.0825C496.489 54.2732 495.515 57.0702 493.567 59.4736C491.661 61.8355 488.968 63.6795 485.487 65.0055C482.048 66.3315 478.028 66.9945 473.429 66.9945C468.663 66.9945 464.478 66.3108 460.873 64.9433C457.31 63.5759 454.492 61.6905 452.42 59.2871C450.389 56.8423 449.312 54.0039 449.188 50.7717Z" fill="#001871"/>
<path fill-rule="evenodd" clip-rule="evenodd" d="M0.452148 24C0.452148 10.7451 11.1973 0 24.4521 0H62.4521C75.707 0 86.4521 10.7451 86.4521 24V62C86.4521 75.2549 75.707 86 62.4521 86H24.4521C11.1973 86 0.452148 75.2549 0.452148 62V24Z" fill="#FF9E43"/>
<path fill-rule="evenodd" clip-rule="evenodd" d="M62.2629 66.7317L20.4301 24.8989L26.0606 19.2685L67.8933 61.1013L62.2629 66.7317Z" fill="#001871"/>
<path fill-rule="evenodd" clip-rule="evenodd" d="M40.1816 72.5804L40.1816 13.4199L48.1442 13.4199V72.5804H40.1816Z" fill="#001871"/>
<path fill-rule="evenodd" clip-rule="evenodd" d="M20.4317 61.1013L62.2645 19.2685L67.8949 24.8989L26.0621 66.7317L20.4317 61.1013Z" fill="#001871"/>
<path d="M14.5815 38.9678H25.0865L29.0676 43.0008L25.0865 47.0338H14.5815V38.9678Z" fill="#001871"/>
<path d="M72.3232 47.034H61.8182L57.8372 43.001L61.8182 38.968L72.3232 38.968V47.034Z" fill="#001871"/>
<path d="M35.7756 65.6514H52.55V72.5804H35.7756V65.6514Z" fill="#001871"/>
<rect x="35.7749" y="13.4194" width="16.7745" height="6.92902" fill="#001871"/>
</svg>
